<svg width="100" height="48" viewBox="0 0 100 48" fill="none" xmlns="http://www.w3.org/2000/svg">
<path d="M67.6038 0C66.4231 5.06028 65.2577 10.1249 64.0596 15.183C62.0795 23.5435 60.0776 31.8996 58.0866 40.2578C58.0474 40.4234 58.0409 40.5955 58.0038 40.8634C60.546 39.9594 62.9095 39.5041 64.4517 42.4972C65.2229 39.2427 65.994 36.1038 66.6954 32.9517C66.8544 32.2328 67.0723 31.9301 67.8761 31.9584C69.9041 32.0259 71.9365 32.0237 73.9645 31.9606C74.8402 31.9344 74.8968 32.2416 74.7139 32.9626C74.154 35.1671 73.6334 37.3803 73.128 39.5978C73.0583 39.9071 72.6728 40.4953 73.2871 40.5345C73.8447 40.5715 74.7226 41.0616 74.9687 39.9638C75.2585 38.6589 75.5699 37.3607 75.8706 36.0602C76.4957 33.3525 78.1818 31.9954 80.957 31.9823C82.6256 31.9736 84.292 31.9911 85.9606 31.9758C86.9975 31.9671 87.9647 32.1827 88.897 32.8101C89.0103 32.0608 89.4612 31.9431 90.1256 31.9606C92.1536 32.0107 94.186 32.0194 96.2141 31.9606C97.0222 31.9366 97.1072 32.2198 96.9416 32.8929C96.3883 35.1366 95.896 37.3955 95.3122 39.6305C95.1031 40.4256 95.2774 40.6369 96.0834 40.5998C97.3424 40.5432 98.6059 40.5846 100 40.5846C98.8106 43.0614 97.6735 45.4249 96.5386 47.7884H76.5241C76.291 47.6141 75.9533 47.6816 75.7399 47.5117C75.143 47.0346 74.7248 47.2699 74.3479 47.7884H63.2536C62.9356 47.3941 63.099 47.0695 63.295 46.8604C62.8942 47.503 62.0643 47.5814 61.2953 47.7884H58.4678C57.9145 47.564 57.3264 47.4093 56.9473 46.88C56.625 47.1828 56.6075 47.5923 56.2938 47.7884H38.8889C38.5252 47.3418 38.7887 46.8843 38.8889 46.4465C39.61 43.2814 40.3876 40.1293 41.0847 36.9402C39.8539 38.7069 38.7474 40.5519 37.5819 42.3599C36.6627 43.7868 35.7739 45.231 34.8808 46.673C34.615 47.1022 34.3536 47.54 33.8831 47.7862H23.2223C22.7257 47.0216 22.7736 46.1306 22.6407 45.2833C22.2116 42.5364 21.8456 39.7808 21.4514 37.0295C21.3708 36.4741 21.2139 35.9033 21.4274 35.2607C20.7608 39.0467 19.7087 42.6693 18.8962 46.3463C18.7807 46.8713 18.687 47.4202 18.2209 47.784H0.815975C0.489224 47.3832 0.663491 46.954 0.761516 46.5402C2.34081 39.8549 3.92664 33.1695 5.51465 26.4864C5.92417 24.7633 6.30756 23.0337 6.74105 21.315C7.02641 20.1845 6.93492 20.0821 5.73466 20.0712C4.28607 20.0581 2.83747 20.0864 1.38888 20.0603C0.00563356 20.0363 -0.188239 19.7749 0.136334 18.4004C1.01638 14.6711 1.95089 10.9527 2.7743 7.21029C2.98778 6.23876 3.528 5.82923 4.50172 5.76606C5.72595 5.68546 6.94581 5.51991 8.15043 5.24326C10.1567 4.78363 11.5791 3.60515 12.5833 1.85812C12.9602 1.20462 13.2586 0.494482 13.8686 0H29.533C29.9011 0.481412 29.6528 0.978073 29.5417 1.45513C27.9668 8.21886 26.3352 14.9695 24.7385 21.7267C24.5882 22.3606 24.4684 23.0011 24.3028 23.6306C24.0959 24.4126 24.379 24.6871 25.1567 24.6784C26.9669 24.6566 28.7793 24.6675 30.5917 24.674C32.3714 24.6806 32.4803 24.7873 32.7264 26.5038C32.7874 26.9221 32.7787 27.3599 33.0249 27.8609C33.5019 27.2401 33.8657 26.6215 34.1903 25.9919C34.7022 24.9964 35.4733 24.6326 36.5734 24.6566C38.6363 24.7045 40.7035 24.6413 42.7686 24.6827C43.6987 24.7002 44.1779 24.3582 44.313 23.4258C44.4263 22.6395 44.655 21.8705 44.875 21.1059C45.1016 20.3173 44.8009 20.0538 44.0298 20.0647C42.5093 20.0843 40.9867 20.0864 39.4662 20.0647C38.0677 20.0429 37.8804 19.7945 38.2049 18.4222C39.0785 14.7256 39.9759 11.0355 40.832 7.33446C41.1174 6.10152 41.3766 5.90983 42.6792 5.76606C43.8664 5.63536 45.0515 5.51773 46.2212 5.24544C48.2209 4.77709 49.6543 3.60733 50.6563 1.85812C51.0288 1.20462 51.3294 0.494482 51.9415 0C57.163 0 62.3845 0 67.6038 0Z" fill="black"/>
<path d="M4.05953 45.1875C6.22044 36.0712 8.33996 27.0812 10.5031 18.0999C10.7122 17.2264 10.5161 17.0696 9.67964 17.0935C7.65379 17.1502 5.62358 17.111 3.44742 17.111C3.91576 15.1025 4.53659 13.1812 4.7762 11.2142C5.02671 9.15349 5.95033 8.39107 8.01103 8.1972C11.1544 7.90313 13.5244 6.15392 15.0449 3.36129C15.3607 2.78403 15.718 2.57056 16.3889 2.58145C19.4321 2.62284 22.4774 2.61412 25.5205 2.58798C26.1457 2.58363 26.2873 2.67294 26.1239 3.35476C22.8629 17.0108 19.639 30.6755 16.3955 44.3358C16.2974 44.7475 16.3214 45.218 15.5873 45.2093C11.7861 45.1636 7.98272 45.1875 4.05735 45.1875H4.05953Z" fill="#FEFEFE"/>
<path d="M42.1325 45.1872C43.6355 38.8439 45.1146 32.5964 46.5981 26.349C47.2559 23.5759 47.8855 20.7942 48.6 18.0343C48.8243 17.1695 48.5237 17.0845 47.7896 17.0976C45.7267 17.1346 43.6639 17.1106 41.4986 17.1106C42.1456 14.4073 42.7947 11.7846 43.3872 9.151C43.507 8.61731 43.8163 8.5476 44.2215 8.51928C45.2737 8.44522 46.3018 8.24046 47.3191 7.97906C49.9593 7.29288 51.8392 5.64388 53.1745 3.31524C53.3575 2.99502 53.4359 2.58767 53.987 2.58985C57.4244 2.61164 60.8597 2.60074 64.3602 2.60074C63.0118 8.31016 61.6918 13.9281 60.3608 19.5438C58.4221 27.7257 56.4638 35.9053 54.5512 44.0937C54.3573 44.9215 54.0828 45.2352 53.1571 45.2177C49.5062 45.1458 45.8531 45.1894 42.1325 45.1894V45.1872Z" fill="#FEFEFE"/>
<path d="M43.274 27.6192C43.2892 28.0919 43.03 28.3228 42.8644 28.5885C39.5534 33.8557 36.227 39.1142 32.9356 44.3967C32.5609 44.9979 32.1688 45.2245 31.463 45.2027C29.7595 45.1482 28.0539 45.1635 26.3505 45.1983C25.7732 45.2092 25.5074 45.048 25.4247 44.4512C24.684 39.0816 23.9325 33.712 23.1461 28.3489C23.0546 27.7303 23.2093 27.6039 23.78 27.6126C25.5924 27.6388 27.4069 27.6409 29.2193 27.6126C29.7683 27.6039 29.96 27.7695 30.0188 28.3271C30.2627 30.6645 30.559 32.9975 30.84 35.3305C30.8901 35.7553 30.9555 36.18 31.0513 36.8836C31.8094 35.6224 32.4345 34.5877 33.0554 33.5508C34.0944 31.8125 35.1444 30.0785 36.1639 28.3293C36.4405 27.8544 36.728 27.5908 37.3445 27.6061C39.3007 27.654 41.259 27.6235 43.274 27.6235V27.6192Z" fill="#F75F45"/>
<path d="M83.4228 34.0714C84.4358 34.0714 85.4487 34.0475 86.4616 34.078C87.6488 34.115 88.2653 34.7642 88.0213 35.8904C87.444 38.5654 86.8036 41.2273 86.1262 43.8783C85.8212 45.0677 84.8845 45.6711 83.7126 45.7125C81.6889 45.7844 79.663 45.78 77.6372 45.7299C76.4391 45.6994 75.901 44.9348 76.1755 43.7346C76.7506 41.2055 77.3431 38.6808 77.977 36.167C78.3517 34.6836 79.1751 34.0932 80.7108 34.0693C81.6148 34.0562 82.5188 34.0671 83.4228 34.0671V34.0714Z" fill="#FEFEFE"/>
<path d="M94.5367 34.0667C93.9115 36.7199 93.3386 39.2511 92.7047 41.7671C92.5305 42.4598 92.6721 42.6515 93.3844 42.6123C94.43 42.5557 95.4821 42.5971 96.6541 42.5971C96.3317 43.6775 95.7653 44.5793 95.3079 45.5269C95.1488 45.858 94.8047 45.7447 94.5302 45.7447C92.6111 45.7513 90.692 45.7382 88.7728 45.7556C88.2435 45.76 87.9908 45.7317 88.1607 45.0499C89.0038 41.656 89.8076 38.2491 90.57 34.8356C90.7116 34.2039 90.9512 34.0188 91.5676 34.0514C92.5043 34.1015 93.4454 34.0645 94.5367 34.0645V34.0667Z" fill="#FEFEFE"/>
<path d="M74.2782 42.5976C74.154 43.6911 73.5681 44.4949 73.1956 45.3837C73.0344 45.7671 72.7229 45.7518 72.3874 45.7518C70.4313 45.7453 68.4751 45.7301 66.5211 45.7606C65.8851 45.7693 65.8241 45.5667 65.9635 44.996C66.7825 41.6326 67.5776 38.2627 68.3357 34.8841C68.4838 34.2284 68.7474 33.9975 69.4118 34.0542C70.0958 34.113 70.7907 34.1173 71.4725 34.0542C72.2044 33.9845 72.3199 34.2371 72.1565 34.8972C71.6076 37.1017 71.1697 39.3366 70.5532 41.5215C70.2635 42.5475 70.5903 42.6738 71.4703 42.615C72.37 42.554 73.2783 42.602 74.2804 42.602L74.2782 42.5976Z" fill="#FEFEFE"/>
<path d="M59.8947 45.7452C59.2411 45.6646 58.4221 45.6973 58.4569 44.5537C58.5027 43.0702 59.3501 42.2425 60.8814 42.2795C61.6373 42.2969 62.3671 42.371 62.3758 43.4101C62.3867 44.8717 61.4979 45.754 59.8925 45.7452H59.8947Z" fill="#FDFDFD"/>
<path d="M82.5711 37.1584C83.5441 37.1584 83.9297 37.5977 83.7278 38.4763C83.4708 39.596 83.2181 40.7156 82.9436 41.831C82.8609 42.1664 82.8195 42.589 82.3228 42.5825C81.6453 42.5716 80.9396 42.7502 80.3013 42.4692C80.1053 42.3821 80.249 42.0096 80.3057 41.7678C80.5649 40.6852 80.872 39.6112 81.0703 38.5199C81.2467 37.5418 81.5669 36.8578 82.5711 37.1584Z" fill="#010101"/>
</svg>
